HIERARCHY
ROOT Hips
{
	OFFSET 0.000000 0.000000 0.000000
	CHANNELS 6 Xposition Yposition Zposition Yrotation Zrotation Xrotation
	JOINT Spine
	{
		OFFSET 0.000000 0.000000 -2.106134
		CHANNELS 6 Xposition Yposition Zposition Yrotation Zrotation Xrotation
		JOINT Spine1
		{
			OFFSET 0.000000 0.000003 -4.765754
			CHANNELS 6 Xposition Yposition Zposition Yrotation Zrotation Xrotation
			JOINT Neck
			{
				OFFSET 0.000000 0.000003 -5.279445
				CHANNELS 6 Xposition Yposition Zposition Yrotation Zrotation Xrotation
				JOINT Head
				{
					OFFSET 0.000000 0.513693 -3.981110
					CHANNELS 6 Xposition Yposition Zposition Yrotation Zrotation Xrotation
					End Site
					{
						OFFSET 0.000000 0.000003 -5.136913
					}
				}
			}
			JOINT LeftShoulder
			{
				OFFSET 1.025240 -0.112039 -4.307662
				CHANNELS 6 Xposition Yposition Zposition Yrotation Zrotation Xrotation
				JOINT LeftArm
				{
					OFFSET 2.971458 0.000000 0.000000
					CHANNELS 6 Xposition Yposition Zposition Yrotation Zrotation Xrotation
					JOINT LeftForeArm
					{
						OFFSET 7.705796 0.000000 0.000000
						CHANNELS 6 Xposition Yposition Zposition Yrotation Zrotation Xrotation
						JOINT LeftHand
						{
							OFFSET 6.891853 0.000000 0.000000
							CHANNELS 6 Xposition Yposition Zposition Yrotation Zrotation Xrotation
							End Site
							{
								OFFSET 3.852686 0.000000 0.000000
							}
						}
					}
				}
			}
			JOINT RightShoulder
			{
				OFFSET -1.027336 -0.112039 -4.307662
				CHANNELS 6 Xposition Yposition Zposition Yrotation Zrotation Xrotation
				JOINT RightArm
				{
					OFFSET -2.971458 0.000000 0.000000
					CHANNELS 6 Xposition Yposition Zposition Yrotation Zrotation Xrotation
					JOINT RightForeArm
					{
						OFFSET -7.705796 0.000000 0.000000
						CHANNELS 6 Xposition Yposition Zposition Yrotation Zrotation Xrotation
						JOINT RightHand
						{
							OFFSET -6.891853 0.000000 0.000000
							CHANNELS 6 Xposition Yposition Zposition Yrotation Zrotation Xrotation
							End Site
							{
								OFFSET -3.852686 0.000000 0.000000
							}
						}
					}
				}
			}
		}
	}
	JOINT LeftUpLeg
	{
		OFFSET 2.568456 0.000000 0.000000
		CHANNELS 6 Xposition Yposition Zposition Yrotation Zrotation Xrotation
		JOINT LeftLeg
		{
			OFFSET 0.000000 -0.000006 13.368048
			CHANNELS 6 Xposition Yposition Zposition Yrotation Zrotation Xrotation
			JOINT LeftFoot
			{
				OFFSET 0.000000 -0.000006 10.738913
				CHANNELS 6 Xposition Yposition Zposition Yrotation Zrotation Xrotation
				JOINT LeftToeBase
				{
					OFFSET 0.000000 3.852684 1.669498
					CHANNELS 6 Xposition Yposition Zposition Yrotation Zrotation Xrotation
					End Site
					{
						OFFSET 0.000000 1.027382 0.000000
					}
				}
			}
		}
	}
	JOINT RightUpLeg
	{
		OFFSET -2.568456 0.000000 0.000000
		CHANNELS 6 Xposition Yposition Zposition Yrotation Zrotation Xrotation
		JOINT RightLeg
		{
			OFFSET 0.000000 -0.000006 13.368048
			CHANNELS 6 Xposition Yposition Zposition Yrotation Zrotation Xrotation
			JOINT RightFoot
			{
				OFFSET 0.000000 -0.000006 10.738913
				CHANNELS 6 Xposition Yposition Zposition Yrotation Zrotation Xrotation
				JOINT RightToeBase
				{
					OFFSET 0.000000 3.852684 1.669498
					CHANNELS 6 Xposition Yposition Zposition Yrotation Zrotation Xrotation
					End Site
					{
						OFFSET 0.000000 1.027382 0.000000
					}
				}
			}
		}
	}
}
MOTION
Frames: 4
Frame Time: 0.041667
-0.685276 19.783928 -24.116194 39.103455 -83.244802 42.847416 0.000003 0.000000 -2.106141 1.408065 1.099551 -9.670471 0.000002 0.000002 -4.765754 7.192888 0.453960 0.949813 -0.000003 0.000003 -5.279438 -23.557966 14.700958 19.937266 0.000005 0.513692 -3.981106 26.897768 24.099575 -3.233903 1.025239 -0.112039 -4.307652 13.581548 8.635717 -5.790449 2.971460 -0.000001 -0.000006 -4.584925 0.165353 17.369586 7.705801 0.000001 0.000003 11.155961 -4.494959 -17.898683 6.891852 0.000000 -0.000003 -40.132115 14.956828 -12.847438 -1.027338 -0.112040 -4.307652 -6.117834 4.977574 12.480400 -2.971453 -0.000000 -0.000005 74.256416 -9.463879 73.600766 -7.705799 -0.000001 -0.000004 -20.228941 -9.504232 -16.644316 -6.891864 -0.000003 -0.000004 9.648656 -7.215713 -14.335889 2.568457 0.000000 -0.000002 -6.955042 0.281288 -6.192048 0.000001 -0.000006 13.368049 -3.642058 -1.733638 11.853956 0.000001 -0.000005 10.738920 4.269964 -25.312980 -9.915730 0.000003 3.852684 1.669497 -0.000002 0.000001 -0.000002 -2.568456 0.000000 -0.000006 -7.568761 0.093843 -10.897610 0.000002 -0.000005 13.368045 2.673704 6.693329 25.053675 0.000004 -0.000005 10.738919 2.317839 8.453354 -21.798576 0.000000 3.852685 1.669498 -0.000000 -0.000006 0.000000 
-0.676604 19.800665 -24.118488 38.848333 -83.248326 42.584833 0.000004 0.000001 -2.106133 1.411861 1.109874 -9.704879 -0.000001 0.000003 -4.765751 7.211901 0.458415 0.961016 0.000004 0.000002 -5.279451 -23.589025 14.692263 19.917100 -0.000003 0.513693 -3.981122 26.982531 24.099795 -3.256877 1.025241 -0.112041 -4.307662 13.625729 8.649023 -5.868159 2.971457 -0.000001 0.000012 -4.527075 0.064970 17.100193 7.705798 -0.000002 -0.000007 11.074331 -4.441336 -17.727305 6.891852 0.000003 -0.000001 -40.060204 14.797810 -12.737130 -1.027332 -0.112041 -4.307655 -6.126283 4.956630 12.476798 -2.971450 -0.000002 0.000002 74.197007 -9.488367 73.444635 -7.705803 -0.000005 -0.000002 -20.149816 -9.581408 -16.547363 -6.891858 0.000002 -0.000005 9.558751 -7.291059 -14.231281 2.568458 0.000000 -0.000002 -6.890231 0.327669 -6.155821 -0.000006 -0.000006 13.368048 -3.657066 -1.757158 11.868539 -0.000004 -0.000004 10.738913 4.234783 -25.379895 -9.947441 -0.000002 3.852684 1.669499 -0.000000 0.000002 -0.000002 -2.568455 0.000000 -0.000003 -7.519786 0.243851 -10.801720 0.000001 -0.000008 13.368044 2.702131 6.738806 24.909997 0.000002 -0.000004 10.738914 2.270739 8.270822 -21.760692 0.000005 3.852684 1.669497 -0.000002 -0.000005 -0.000003 
-0.667948 19.814911 -24.121222 38.755480 -83.245683 42.469198 -0.000000 0.000000 -2.106133 1.397461 1.126365 -9.690911 0.000000 0.000003 -4.765757 7.237866 0.461758 0.928069 0.000004 0.000003 -5.279453 -23.599176 14.701340 19.935709 -0.000005 0.513693 -3.981125 27.022245 24.097710 -3.334048 1.025239 -0.112041 -4.307671 13.636719 8.592512 -5.829598 2.971462 -0.000000 -0.000001 -4.478217 0.070487 16.921594 7.705794 0.000001 -0.000004 11.023550 -4.462952 -17.623544 6.891853 0.000000 -0.000004 -40.071036 14.758505 -12.646432 -1.027333 -0.112039 -4.307665 -6.123732 4.956546 12.496297 -2.971454 -0.000000 -0.000010 74.126035 -9.511547 73.341663 -7.705797 -0.000003 -0.000001 -20.157077 -9.609804 -16.458189 -6.891858 0.000001 0.000003 9.680449 -7.321781 -14.125966 2.568455 -0.000000 0.000003 -6.867537 0.373509 -6.088434 -0.000000 -0.000006 13.368050 -3.621465 -1.769516 11.817005 -0.000002 -0.000004 10.738916 4.214964 -25.414265 -9.922381 0.000003 3.852685 1.669499 0.000001 -0.000004 0.000001 -2.568457 0.000000 0.000003 -7.478795 0.496084 -10.700127 -0.000003 -0.000006 13.368047 2.732697 6.695780 24.795489 -0.000004 -0.000004 10.738922 2.254241 8.130384 -21.744247 -0.000002 3.852685 1.669498 -0.000001 -0.000000 -0.000003 
-0.660172 19.830717 -24.123888 38.543540 -83.275797 42.254197 -0.000000 0.000000 -2.106131 1.390795 1.111385 -9.770189 0.000004 0.000001 -4.765749 7.298148 0.459148 0.962842 0.000001 0.000003 -5.279447 -23.636469 14.716841 20.073111 0.000002 0.513692 -3.981110 27.111022 24.106777 -3.511650 1.025241 -0.112039 -4.307663 13.632662 8.748076 -5.772829 2.971460 0.000001 0.000001 -4.438832 -0.078266 16.717636 7.705796 0.000001 -0.000005 11.006058 -4.473729 -17.504411 6.891854 0.000002 -0.000001 -40.031366 14.675493 -12.564130 -1.027329 -0.112040 -4.307662 -6.111477 4.943947 12.504935 -2.971450 -0.000002 0.000003 74.038725 -9.507794 73.101288 -7.705797 -0.000001 0.000000 -20.134901 -9.655366 -16.456567 -6.891859 -0.000006 -0.000009 9.530158 -7.361481 -14.124454 2.568457 0.000000 0.000002 -6.807906 0.366971 -6.045768 0.000003 -0.000006 13.368052 -3.608201 -1.709829 11.756854 -0.000004 -0.000005 10.738916 4.250995 -25.472700 -9.884716 0.000001 3.852686 1.669498 -0.000001 -0.000004 -0.000003 -2.568457 0.000000 0.000003 -7.436371 0.665810 -10.609814 0.000004 -0.000006 13.368048 2.812761 6.737520 24.657956 0.000006 -0.000005 10.738916 2.188863 7.987980 -21.685200 -0.000003 3.852685 1.669498 -0.000001 -0.000000 -0.000004 
